<?xml version="1.0" encoding="UTF-8"?>
<svg id="Layer_2" data-name="Layer 2" xmlns="http://www.w3.org/2000/svg" viewBox="0 0 1761 309.96">
  <defs>
    <style>
      .cls-1 {
        fill: #dddcd2;
      }

      .cls-2 {
        fill: #fff;
      }

      .cls-3 {
        fill: #cafc83;
      }
    </style>
  </defs>
  <g id="Layer_1-2" data-name="Layer 1">
    <path class="cls-3" d="M1469.06,105.47c-.03,31.34,25.54,57.03,57.26,56.89,32.22-.13,57.33-25.28,57.48-57.01.14-31.72-25.37-56.8-57.51-56.75-31.75.05-57.2,25.33-57.23,56.87M1583.64,58.38c.06-1.03.16-2.05.16-3.09.01-14.99-.03-29.97.04-44.96.02-6.69,4.11-10.51,10.77-10.33,3.25.09,5.17,1.95,5.36,5.2.03.62.01,1.26.01,1.89,0,32.66.02,65.32.02,97.99,0,32.23-20.79,60.62-51.83,70.13-32.79,10.05-67.32-3.56-84.48-31.78-11.09-18.26-14.06-37.87-7.82-58.23,8.4-27.42,27.21-44.71,55.33-51.04,18.59-4.18,36.53-1.15,53.03,8.71,6.22,3.72,11.87,8.18,16.64,13.67.64.73,1.14,1.58,1.71,2.38.36-.18.71-.36,1.06-.55"/>
    <path class="cls-3" d="M1685.88,48.63c-31.6-.1-57.37,25.24-57.58,56.59-.2,31.2,25.57,57.21,57.37,57.14,32.01-.06,57.33-24.91,57.49-56.93.15-31.5-25.6-56.7-57.29-56.79M1742.33,152.05c-.88,1-1.71,2.05-2.63,3-20.03,20.31-44.1,28.04-71.93,20.92-29.5-7.55-47.68-26.98-54.03-56.38-6.79-31.47,8.76-63.36,37.38-78.49,14.48-7.66,29.97-10.12,46.24-7.62,18.42,2.84,33.49,11.62,45.32,25.7,10.84,12.9,16.47,28.04,16.74,44.78.35,22.69.1,45.38.09,68.08,0,4.41-2.29,6.57-6.75,6.51-5.46-.06-9.25-3.58-9.41-9.01-.15-4.75-.05-9.51-.08-14.26,0-.95-.1-1.9-.15-2.85-.27-.12-.53-.25-.8-.38"/>
    <path class="cls-3" d="M1424.63,105.54c-.11-31.64-25.64-56.92-57.48-56.9-31.84.01-57.32,25.35-57.33,57.02-.01,31.16,25.84,56.72,57.44,56.79,31.38.06,57.48-25.82,57.37-56.9M1367.1,32.49c40.44.11,73.09,32.08,73.57,72.05.5,40.01-31.29,73.36-72.5,73.9-41.35.53-73.71-31.81-74.53-71.35-.86-41.23,31.78-74.08,73.45-74.6"/>
    <path class="cls-3" d="M1236.29,32.53c20.71.25,38.19,7.87,52.64,22.48,2.56,2.58,2.63,4.45.2,7.21-3.69,4.18-9.77,4.42-14.73,1.04-5.41-3.7-10.75-7.82-16.74-10.28-16.94-6.98-33.84-5.99-49.86,3.01-14.76,8.29-24.33,20.87-27.84,37.35-4.44,20.83,1.26,39.06,16.88,53.64,20.55,19.18,51.13,20.54,73.71,3.85,1.74-1.28,3.3-2.81,5.03-4.1,4.37-3.28,10.29-2.5,13.56,1.72,2.03,2.63,1.99,5.41-.37,7.77-12.7,12.67-27.93,20.2-45.94,21.87-20.9,1.95-39.42-4.04-55.19-17.58-14.76-12.67-23.28-28.9-25.01-48.3-2.05-22.93,5.41-42.68,21.8-58.79,14.25-14.01,31.77-20.86,51.86-20.89"/>
    <polygon class="cls-2" points="541.91 135.24 541.91 35.09 572.54 35.09 572.54 178.89 545.42 178.89 439.81 79.39 439.81 178.89 409.18 178.89 409.18 35.09 436.3 35.09 541.91 135.24"/>
    <path class="cls-2" d="M1021.57,35.1c17.69,23,52.32,71.26,52.32,71.26l51.7-71.26h36.69l-73.39,96.61v47.18h-30.63v-46.54l-74.03-97.25h37.33Z"/>
    <polygon class="cls-2" points="974.83 35.1 974.83 61.42 912.3 61.42 912.3 178.89 881.66 178.89 881.66 61.42 819.13 61.42 819.13 35.1 974.83 35.1"/>
    <polygon class="cls-2" points="748.33 35.1 748.33 61.42 685.79 61.42 685.79 178.89 655.16 178.89 655.16 61.42 592.62 61.42 592.62 35.1 748.33 35.1"/>
    <rect class="cls-2" x="0" y="35.1" width="31.27" height="143.79"/>
    <polygon class="cls-2" points="381.76 61.41 381.76 35.09 264.62 35.09 238.49 35.09 238.49 178.89 264.62 178.89 381.76 178.89 381.76 152.57 264.62 152.57 264.62 120.15 381.76 120.15 381.76 93.83 264.62 93.83 264.62 61.41 381.76 61.41"/>
    <path class="cls-2" d="M95.59,61.53h42.93c15.44,0,27.18,3.66,34.9,10.89,7.97,7.46,12.01,19.06,12.01,34.48,0,30.65-15.35,45.55-46.91,45.55h-42.93V61.53ZM196.88,53.88c-13.02-12.47-31.99-18.79-56.38-18.79h-75.3v143.8s75.29,0,75.29,0c48.89,0,75.81-25.57,75.81-72,0-22.83-6.53-40.66-19.43-53.01"/>
    <rect class="cls-2" x="768.41" y="35.1" width="30.63" height="143.8"/>
    <polygon class="cls-1" points="704.33 247.51 704.33 308.86 695.7 308.86 695.7 281.02 663.46 281.02 663.46 308.86 654.83 308.86 654.83 247.51 663.46 247.51 663.46 273.58 695.7 273.58 695.7 247.51 704.33 247.51"/>
    <path class="cls-1" d="M727.3,272.39c-2.57,2.14-4.02,5.36-4.36,9.65h26.83c-.11-3.44-1.35-6.44-3.72-9.01-2.37-2.57-5.5-3.85-9.39-3.85-3.67,0-6.78,1.07-9.35,3.22M722.86,288.64c.11,4.63,1.56,8.21,4.36,10.75,2.79,2.54,6.02,3.81,9.69,3.81,6.09,0,10.24-2.51,12.44-7.53h7.95c-1.07,4.12-3.41,7.53-7.02,10.24-3.61,2.7-8.07,4.06-13.37,4.06-7,0-12.47-2.23-16.42-6.68-3.95-4.46-5.92-10.15-5.92-17.09s2.09-12.82,6.26-17.14c4.17-4.32,9.45-6.47,15.82-6.47,6.83,0,12.19,2.49,16.08,7.49,3.89,5,5.61,11.19,5.16,18.58h-35.03Z"/>
    <path class="cls-1" d="M795.11,286.94c-7.73.73-13.47,1.8-17.22,3.21-3.75,1.41-5.63,3.59-5.63,6.52,0,2.2.79,3.95,2.37,5.25,1.58,1.29,3.72,1.95,6.43,1.95,4.06,0,7.42-1.1,10.07-3.3,2.65-2.2,3.98-5.79,3.98-10.75v-2.88ZM768.2,306.45c-2.99-2.34-4.49-5.54-4.49-9.6,0-2.6.69-4.83,2.07-6.69,1.38-1.86,3.52-3.4,6.43-4.61,2.9-1.21,6.08-2.16,9.52-2.84,3.44-.67,7.7-1.29,12.78-1.86v-1.1c0-7.39-3.44-11.09-10.32-11.09-3.16,0-5.64.79-7.45,2.37-1.81,1.58-2.79,3.81-2.96,6.68h-7.96c.34-4.68,2.3-8.4,5.88-11.17,3.58-2.76,7.72-4.14,12.4-4.14,6.26,0,10.86,1.52,13.79,4.57,2.93,3.05,4.37,7.79,4.32,14.22l-.09,10.5c-.06,7.39.34,13.11,1.18,17.18h-7.79c-.34-2.2-.54-4.29-.59-6.26-2.88,4.91-8.07,7.36-15.57,7.36-4.46,0-8.18-1.17-11.17-3.51"/>
    <rect class="cls-1" x="813.72" y="247.51" width="7.7" height="61.35"/>
    <path class="cls-1" d="M835.81,251.91h7.7v11.42h8.63v6.18h-8.63v27c0,2.48.27,4.09.8,4.82.53.73,1.85,1.1,3.94,1.1h3.89v6.43h-5.59c-4.4,0-7.29-.73-8.67-2.2-1.38-1.46-2.07-4.54-2.07-9.22v-27.92h-7.19v-6.18h7.19v-11.42Z"/>
    <path class="cls-1" d="M869.65,270.19c3.1-5.08,8.01-7.61,14.72-7.61,9.99,0,14.98,5.84,14.98,17.52v28.77h-7.7v-26.49c0-4.17-.66-7.41-1.99-9.69-1.33-2.29-3.99-3.43-8-3.43-3.78,0-6.73,1.27-8.84,3.81-2.11,2.54-3.17,6.23-3.17,11.09v24.71h-7.7v-61.35h7.7v22.68Z"/>
    <path class="cls-1" d="M942.71,267.4c3.41,3.22,5.43,6.94,6.05,11.17h-7.79c-.57-2.71-1.92-4.92-4.06-6.65-2.14-1.72-4.71-2.58-7.7-2.58-3.67,0-6.77,1.44-9.31,4.31-2.54,2.88-3.81,7.03-3.81,12.44s1.27,9.69,3.81,12.65c2.54,2.96,5.64,4.44,9.31,4.44,3.1,0,5.76-.89,7.95-2.66,2.2-1.78,3.58-3.94,4.15-6.48h7.96c-.85,4.4-3.15,8.15-6.9,11.26-3.75,3.1-8.22,4.65-13.41,4.65-6.49,0-11.65-2.2-15.49-6.6-3.83-4.4-5.75-10.13-5.75-17.18s2-12.54,6.01-16.97c4.01-4.43,9.34-6.64,15.99-6.64,5.25,0,9.58,1.61,12.99,4.82"/>
    <path class="cls-1" d="M986.66,286.94c-7.73.73-13.47,1.8-17.22,3.21-3.75,1.41-5.63,3.59-5.63,6.52,0,2.2.79,3.95,2.37,5.25,1.58,1.29,3.73,1.95,6.43,1.95,4.06,0,7.42-1.1,10.07-3.3,2.65-2.2,3.98-5.79,3.98-10.75v-2.88ZM959.75,306.45c-2.99-2.34-4.49-5.54-4.49-9.6,0-2.6.69-4.83,2.07-6.69,1.38-1.86,3.52-3.4,6.43-4.61,2.9-1.21,6.08-2.16,9.52-2.84,3.44-.67,7.7-1.29,12.78-1.86v-1.1c0-7.39-3.44-11.09-10.33-11.09-3.16,0-5.64.79-7.45,2.37-1.8,1.58-2.79,3.81-2.96,6.68h-7.95c.34-4.68,2.3-8.4,5.88-11.17,3.58-2.76,7.72-4.14,12.4-4.14,6.26,0,10.86,1.52,13.8,4.57,2.93,3.05,4.37,7.79,4.31,14.22l-.09,10.5c-.05,7.39.34,13.11,1.19,17.18h-7.79c-.34-2.2-.54-4.29-.59-6.26-2.88,4.91-8.07,7.36-15.57,7.36-4.46,0-8.18-1.17-11.17-3.51"/>
    <path class="cls-1" d="M1027.95,271.37c-1.41-.23-2.85-.34-4.32-.34-3.61,0-6.29,1.09-8.04,3.26-1.75,2.17-2.63,5.74-2.63,10.7v23.87h-7.7v-45.53h7.53v7.96c2.31-5.19,6.6-7.92,12.86-8.21.91,0,1.67.03,2.29.08v8.21Z"/>
    <path class="cls-1" d="M1044.07,272.39c-2.57,2.14-4.02,5.36-4.35,9.65h26.83c-.11-3.44-1.35-6.44-3.72-9.01-2.37-2.57-5.5-3.85-9.39-3.85-3.67,0-6.78,1.07-9.35,3.22M1039.63,288.64c.11,4.63,1.56,8.21,4.35,10.75,2.8,2.54,6.03,3.81,9.69,3.81,6.09,0,10.24-2.51,12.44-7.53h7.96c-1.07,4.12-3.42,7.53-7.02,10.24-3.61,2.7-8.07,4.06-13.37,4.06-7,0-12.47-2.23-16.42-6.68-3.95-4.46-5.93-10.15-5.93-17.09s2.09-12.82,6.27-17.14c4.18-4.32,9.45-6.47,15.82-6.47,6.83,0,12.18,2.49,16.08,7.49,3.89,5,5.61,11.19,5.16,18.58h-35.03Z"/>
    <path class="cls-1" d="M1156.31,289.31c-1.29,6.6-4.34,11.69-9.14,15.27-4.8,3.59-10.61,5.37-17.44,5.37-8.63,0-15.43-2.94-20.4-8.84-4.96-5.89-7.44-13.58-7.44-23.06s2.59-17.12,7.78-22.93c5.19-5.81,12.11-8.72,20.74-8.72,6.43,0,11.96,1.82,16.59,5.46,4.62,3.64,7.61,8.7,8.97,15.19h-8.38c-.9-4-2.89-7.23-5.96-9.69-3.08-2.46-6.95-3.68-11.64-3.68-5.64,0-10.27,2.14-13.88,6.43-3.61,4.29-5.42,10.27-5.42,17.94s1.8,13.7,5.42,18.07c3.61,4.37,8.32,6.56,14.13,6.56,4.74,0,8.61-1.2,11.63-3.6,3.02-2.4,5.04-5.65,6.05-9.77h8.38Z"/>
    <path class="cls-1" d="M1175.09,299c2.59,2.8,5.83,4.19,9.73,4.19s7.07-1.44,9.69-4.31c2.62-2.88,3.94-7.08,3.94-12.61s-1.3-9.95-3.89-12.74c-2.59-2.8-5.84-4.19-9.73-4.19s-7.14,1.37-9.73,4.11c-2.6,2.73-3.89,7.01-3.89,12.82s1.3,9.94,3.89,12.73M1200.14,268.66c4.34,4.06,6.51,9.93,6.51,17.61s-2.17,13.54-6.51,17.6c-4.35,4.06-9.45,6.09-15.32,6.09s-10.97-2.03-15.31-6.09c-4.35-4.06-6.52-9.93-6.52-17.6s2.17-13.54,6.52-17.61c4.34-4.06,9.45-6.09,15.31-6.09s10.97,2.03,15.32,6.09"/>
    <path class="cls-1" d="M1223.56,308.86h-7.7v-45.53h7.7v6.85c3.1-5.08,7.68-7.61,13.71-7.61,6.6,0,10.97,2.68,13.11,8.04,3.44-5.36,8.55-8.04,15.32-8.04,9.82,0,14.73,5.84,14.73,17.52v28.77h-7.7v-26.49c0-4.12-.66-7.34-1.99-9.65-1.33-2.31-3.9-3.47-7.74-3.47-3.39,0-6.07,1.28-8.04,3.85-1.97,2.57-2.96,6.25-2.96,11.05v24.71h-7.7v-26.49c0-4.12-.66-7.34-1.99-9.65-1.33-2.31-3.91-3.47-7.74-3.47-3.38,0-6.06,1.28-8.04,3.85-1.98,2.57-2.96,6.25-2.96,11.05v24.71Z"/>
    <path class="cls-1" d="M1299.63,308.86h-7.7v-45.53h7.7v6.85c3.1-5.08,7.68-7.61,13.71-7.61,6.6,0,10.97,2.68,13.12,8.04,3.44-5.36,8.55-8.04,15.32-8.04,9.82,0,14.73,5.84,14.73,17.52v28.77h-7.7v-26.49c0-4.12-.66-7.34-1.99-9.65-1.33-2.31-3.9-3.47-7.74-3.47-3.39,0-6.07,1.28-8.04,3.85-1.97,2.57-2.96,6.25-2.96,11.05v24.71h-7.7v-26.49c0-4.12-.66-7.34-1.99-9.65-1.33-2.31-3.91-3.47-7.74-3.47-3.38,0-6.06,1.28-8.04,3.85-1.98,2.57-2.96,6.25-2.96,11.05v24.71Z"/>
    <path class="cls-1" d="M1396.17,302.35c-3.1,5.08-7.87,7.61-14.3,7.61-9.7,0-14.56-5.84-14.56-17.52v-29.11h7.7v26.83c0,4.17.63,7.4,1.9,9.69,1.27,2.29,3.82,3.43,7.66,3.43s6.59-1.27,8.59-3.81c2-2.53,3-6.23,3-11.09v-25.05h7.7v45.53h-7.7v-6.51Z"/>
    <path class="cls-1" d="M1423.75,270.19c3.1-5.08,8.02-7.61,14.73-7.61,9.99,0,14.98,5.84,14.98,17.52v28.77h-7.7v-26.49c0-4.17-.66-7.41-1.99-9.69-1.33-2.29-3.99-3.43-7.99-3.43-3.78,0-6.73,1.27-8.84,3.81-2.12,2.54-3.18,6.23-3.18,11.09v24.71h-7.7v-45.53h7.7v6.85Z"/>
    <path class="cls-1" d="M1472.65,308.86h-7.7v-45.53h7.7v45.53ZM1472.65,256.82h-7.7v-9.31h7.7v9.31Z"/>
    <path class="cls-1" d="M1516.7,267.4c3.41,3.22,5.43,6.94,6.05,11.17h-7.79c-.56-2.71-1.92-4.92-4.06-6.65-2.14-1.72-4.71-2.58-7.7-2.58-3.66,0-6.77,1.44-9.3,4.31-2.54,2.88-3.81,7.03-3.81,12.44s1.27,9.69,3.81,12.65c2.54,2.96,5.64,4.44,9.3,4.44,3.1,0,5.76-.89,7.96-2.66,2.2-1.78,3.58-3.94,4.15-6.48h7.95c-.84,4.4-3.15,8.15-6.9,11.26-3.75,3.1-8.22,4.65-13.41,4.65-6.49,0-11.65-2.2-15.49-6.6-3.83-4.4-5.76-10.13-5.76-17.18s2.01-12.54,6.01-16.97c4.01-4.43,9.34-6.64,15.99-6.64,5.25,0,9.58,1.61,12.99,4.82"/>
    <path class="cls-1" d="M1560.65,286.94c-7.73.73-13.47,1.8-17.22,3.21-3.75,1.41-5.63,3.59-5.63,6.52,0,2.2.79,3.95,2.37,5.25,1.58,1.29,3.72,1.95,6.43,1.95,4.06,0,7.42-1.1,10.07-3.3,2.65-2.2,3.98-5.79,3.98-10.75v-2.88ZM1533.74,306.45c-2.99-2.34-4.49-5.54-4.49-9.6,0-2.6.69-4.83,2.07-6.69,1.39-1.86,3.53-3.4,6.43-4.61,2.91-1.21,6.08-2.16,9.52-2.84,3.44-.67,7.7-1.29,12.78-1.86v-1.1c0-7.39-3.44-11.09-10.32-11.09-3.16,0-5.64.79-7.45,2.37-1.8,1.58-2.8,3.81-2.96,6.68h-7.96c.34-4.68,2.3-8.4,5.88-11.17,3.58-2.76,7.71-4.14,12.4-4.14,6.26,0,10.86,1.52,13.79,4.57,2.93,3.05,4.37,7.79,4.32,14.22l-.08,10.5c-.06,7.39.34,13.11,1.18,17.18h-7.78c-.34-2.2-.54-4.29-.59-6.26-2.88,4.91-8.07,7.36-15.58,7.36-4.46,0-8.18-1.17-11.17-3.51"/>
    <path class="cls-1" d="M1581.45,251.91h7.7v11.42h8.63v6.18h-8.63v27c0,2.48.27,4.09.81,4.82.54.73,1.85,1.1,3.94,1.1h3.89v6.43h-5.58c-4.4,0-7.29-.73-8.67-2.2-1.38-1.46-2.07-4.54-2.07-9.22v-27.92h-7.19v-6.18h7.19v-11.42Z"/>
    <path class="cls-1" d="M1615.3,308.86h-7.7v-45.53h7.7v45.53ZM1615.3,256.82h-7.7v-9.31h7.7v9.31Z"/>
    <path class="cls-1" d="M1636.63,299c2.59,2.8,5.83,4.19,9.73,4.19s7.07-1.44,9.69-4.31c2.62-2.88,3.94-7.08,3.94-12.61s-1.3-9.95-3.89-12.74c-2.59-2.8-5.84-4.19-9.73-4.19s-7.14,1.37-9.73,4.11c-2.6,2.73-3.89,7.01-3.89,12.82s1.3,9.94,3.89,12.73M1661.67,268.66c4.34,4.06,6.51,9.93,6.51,17.61s-2.17,13.54-6.51,17.6c-4.35,4.06-9.45,6.09-15.32,6.09s-10.97-2.03-15.31-6.09c-4.34-4.06-6.52-9.93-6.52-17.6s2.18-13.54,6.52-17.61c4.34-4.06,9.45-6.09,15.31-6.09s10.97,2.03,15.32,6.09"/>
    <path class="cls-1" d="M1685.1,270.19c3.1-5.08,8.01-7.61,14.73-7.61,9.99,0,14.98,5.84,14.98,17.52v28.77h-7.7v-26.49c0-4.17-.66-7.41-1.99-9.69-1.33-2.29-3.99-3.43-7.99-3.43-3.78,0-6.73,1.27-8.84,3.81-2.12,2.54-3.18,6.23-3.18,11.09v24.71h-7.7v-45.53h7.7v6.85Z"/>
    <path class="cls-1" d="M1752.37,276.62c-1.18-5.02-4.77-7.53-10.75-7.53-2.54,0-4.77.48-6.68,1.44-1.92.96-2.88,2.4-2.88,4.32,0,1.75.58,3.09,1.73,4.02,1.16.93,2.9,1.65,5.21,2.15l6.43,1.27c4.8.9,8.59,2.38,11.38,4.44,2.79,2.06,4.19,5.09,4.19,9.1,0,4.4-1.74,7.86-5.25,10.37-3.49,2.51-7.92,3.77-13.28,3.77-5.64,0-10.19-1.55-13.63-4.65-3.44-3.1-5.42-6.83-5.92-11.17h8.12c1.35,6.21,5.22,9.31,11.6,9.31,3.04,0,5.57-.6,7.57-1.82,2.01-1.22,3.01-2.86,3.01-4.95s-.82-3.78-2.46-4.91c-1.63-1.12-3.89-2-6.77-2.62l-6.77-1.35c-3.84-.85-6.96-2.2-9.35-4.06-2.4-1.86-3.6-4.71-3.6-8.54s1.74-6.98,5.2-9.27c3.47-2.29,7.8-3.43,12.99-3.43,4.91,0,8.94,1.25,12.1,3.77,3.16,2.51,5.1,5.96,5.84,10.36h-8.04Z"/>
  </g>
</svg>