<?xml version="1.0" encoding="UTF-8"?>
<svg id="Layer_2" data-name="Layer 2" xmlns="http://www.w3.org/2000/svg" viewBox="0 0 573.1 64">
  <defs>
    <style>
      .cls-1 {
        fill: #fff;
      }
    </style>
  </defs>
  <g id="Layer_2-2" data-name="Layer 2">
    <g>
      <polygon class="cls-1" points="267.21 0 267.21 44.57 215.13 0 201.76 0 201.76 64 216.86 64 216.86 19.72 268.94 64 282.31 64 282.31 0 267.21 0"/>
      <path class="cls-1" d="M503.72,0c8.72,10.24,25.8,31.72,25.8,31.72L555.01,0h18.09l-36.18,43v21h-15.1v-20.72L485.31,0h18.41Z"/>
      <polygon class="cls-1" points="403.9 0 403.9 11.72 434.73 11.72 434.73 64 449.84 64 449.84 11.72 480.67 11.72 480.67 0 403.9 0"/>
      <polygon class="cls-1" points="292.21 0 292.21 11.72 323.05 11.72 323.05 64 338.15 64 338.15 11.72 368.99 11.72 368.99 0 292.21 0"/>
      <rect class="cls-1" y="0" width="15.42" height="64"/>
      <polygon class="cls-1" points="117.6 0 117.6 64 130.48 64 188.24 64 188.24 52.29 130.48 52.29 130.48 37.86 188.24 37.86 188.24 26.15 130.48 26.15 130.48 11.72 188.24 11.72 188.24 0 117.6 0"/>
      <path class="cls-1" d="M47.13,11.77h21.17c7.61,0,13.4,1.63,17.21,4.85,3.93,3.32,5.92,8.48,5.92,15.35,0,13.64-7.57,20.28-23.13,20.28h-21.17V11.77ZM97.08,8.36C90.66,2.81,81.3,0,69.28,0h-37.13v64s37.13,0,37.13,0c24.1,0,37.38-11.38,37.38-32.05,0-10.16-3.22-18.1-9.58-23.59"/>
      <rect class="cls-1" x="378.89" y="0" width="15.1" height="64"/>
    </g>
  </g>
</svg>